# xmcd
#
# Track frame offsets:
# 150
# 12352
# 26777
# 36892
# 46025
# 57027
# 69460
# 78217
# 91532
# 105435
#
# Disc length: 1598 seconds
#
#
# Revision: 0
# Processed by: cddbd v1.5.2PL0 Copyright (c) Steve Scherf et al.
# Submitted via: FreeRIP 2.942 
#
DISCID=68063c0a
DTITLE=Great Country Hymns, Disc 1
DYEAR=2002
DGENRE=Gospel
TTITLE0=I'm Working On A Building - The Carter Family
TTITLE1=What Would You Give In Exchange - Monroe Brothers
TTITLE2=How Great Thou Art - The Blackwood Brothers
TTITLE3=Standing On The Promises - The Statesmen Quartet with Hovie Lister
TTITLE4=Beyond The Sunset - George Beverly Shea
TTITLE5=Down By The Riverside - Jake Hess and His Family Group
TTITLE6=This Train - Wendy Bagwell and the Sunliters
TTITLE7=This Ole House - Stuart Hamblen
TTITLE8=Where The Soul Never Dies - Blue Sky Boys, Bill and Early Bolick
TTITLE9=Just One Way To The Pearly Gates - Uncle Dave Macon
EXTD=A 2002 Compilation, Original Artists, Original Recordings
EXTT0=
EXTT1=
EXTT2=
EXTT3=
EXTT4=
EXTT5=
EXTT6=
EXTT7=
EXTT8=
EXTT9=
PLAYORDER=
